<?xml version="1.0" encoding="utf-8"?>
<!-- Generator: Adobe Illustrator 21.0.0, SVG Export Plug-In . SVG Version: 6.00 Build 0)  -->
<svg version="1.1" id="Layer_1" xmlns="http://www.w3.org/2000/svg" xmlns:xlink="http://www.w3.org/1999/xlink" x="0px" y="0px"
	 viewBox="0 0 534 586" style="enable-background:new 0 0 534 586;" xml:space="preserve">
<style type="text/css">
	.st0{fill:#E1E3EB;}
	.st1{fill:#B3B7C6;stroke:#6E7690;stroke-width:15;stroke-linecap:round;stroke-linejoin:round;stroke-miterlimit:10;}
	.st2{opacity:0.2;fill:#121E48;}
	.st3{fill:#E1E3EB;stroke:#6E7690;stroke-width:15;stroke-linecap:round;stroke-linejoin:round;stroke-miterlimit:10;}
	.st4{fill:none;stroke:#6E7690;stroke-width:15;stroke-linecap:round;stroke-linejoin:round;stroke-miterlimit:10;}
	.st5{fill-rule:evenodd;clip-rule:evenodd;fill:#E1E3EB;}
	
		.st6{fill-rule:evenodd;clip-rule:evenodd;fill:none;stroke:#6E7690;stroke-width:15;stroke-linecap:round;stroke-linejoin:round;stroke-miterlimit:10;}
	.st7{fill:#B3B7C6;}
	.st8{opacity:0.2;fill-rule:evenodd;clip-rule:evenodd;fill:#121E48;}
	
		.st9{fill-rule:evenodd;clip-rule:evenodd;fill:#F8F9FD;stroke:#6E7690;stroke-width:15;stroke-linecap:round;stroke-linejoin:round;stroke-miterlimit:10;}
	.st10{fill:#6E7690;}
</style>
<path class="st0" d="M123.9,119.8c29.8,0,54,24.2,54,54s-24.2,53.9-54,53.9c-29.8,0-54-24.1-54-53.9S94.1,119.8,123.9,119.8z"/>
<path class="st1" d="M123.9,148.6c13.9,0,25.2,11.3,25.2,25.2c0,13.9-11.3,25.2-25.2,25.2c-13.9,0-25.2-11.3-25.2-25.2
	C98.7,159.9,110,148.6,123.9,148.6z"/>
<path class="st2" d="M147.5,125.3c-20.9,27.1-36.5,61.9-45.5,97.8c9.5,4.2,20.4,5.8,31.5,3.8c29.3-5.3,48.8-33.4,43.5-62.7
	C173.8,146.6,162.4,132.6,147.5,125.3z"/>
<ellipse class="st3" cx="380.1" cy="127.5" rx="54" ry="54"/>
<ellipse class="st1" cx="380.1" cy="127.5" rx="25.2" ry="25.2"/>
<path class="st4" d="M123.9,148.6c13.9,0,25.2,11.3,25.2,25.2c0,13.9-11.3,25.2-25.2,25.2c-13.9,0-25.2-11.3-25.2-25.2
	C98.7,159.9,110,148.6,123.9,148.6z"/>
<path class="st4" d="M123.9,119.8c29.8,0,54,24.2,54,54s-24.2,53.9-54,53.9c-29.8,0-54-24.1-54-53.9S94.1,119.8,123.9,119.8z"/>
<path class="st0" d="M93.4,391.6c-1.3,0-2.7,0-4-0.1c-19.6-0.8-48-8.1-72.5-37.8c-7.8-9.5-6.5-23.6,3.1-31.4
	c9.5-7.8,23.6-6.4,31.4,3.1C62.6,339.1,76,346.3,91.3,347c16.3,0.7,29.5-6.3,34-10.9c8.6-8.8,22.7-9,31.5-0.4
	c8.8,8.6,9,22.7,0.4,31.5C142.5,382.2,117.8,391.6,93.4,391.6z"/>
<path class="st5" d="M432,271.6L432,271.6L432,271.6z M434.3,316.3c-6.7,0-12.9-1-18.4-3.1c-11.5-4.4-17.2-17.3-12.8-28.8
	c4.4-11.4,17.2-17.1,28.6-12.9c4.9,1.2,22.3-2,34.8-13.6c10.9-10.1,14.7-23,11.6-39.5c-2.3-12.1,5.8-23.7,17.9-26
	c12.1-2.3,23.8,5.8,26,17.9c6.2,33.3-4.1,63-28.9,83.6C476.1,308.1,453.5,316.3,434.3,316.3z"/>
<path class="st0" d="M245.2,574c-9.8,0-18.8-6.6-21.5-16.5c-11.2-41.9-7.9-115.6,6.7-146.1c5.3-11.1,18.6-15.8,29.7-10.5
	c11.1,5.3,15.8,18.6,10.5,29.7c-9.3,19.5-13,81.3-3.9,115.4c3.2,11.9-3.9,24.1-15.8,27.3C249.1,573.8,247.1,574,245.2,574z"/>
<path class="st0" d="M402.2,529.4c-4.2,0-8.5-1.2-12.3-3.7c-10.3-6.8-13.1-20.6-6.3-30.9c8.5-12.9,11.3-24.2,8.3-34.4
	c-4.8-16.7-24-29.3-34.6-34.2c-11.2-5.1-16.2-18.3-11.1-29.5s18.3-16.1,29.5-11c7.9,3.6,47.8,23.5,59,62.4
	c4.6,15.9,5.9,41.2-14,71.3C416.5,525.9,409.4,529.4,402.2,529.4z"/>
<path class="st2" d="M260.1,400.8c-11.1-5.3-24.4-0.6-29.7,10.5c-6.9,14.5-11.3,38.9-12.8,65c14,5.4,28.8,8.9,44.1,10.4
	c0.7-23.6,4.1-45.8,9-56.1C275.9,419.5,271.2,406.1,260.1,400.8z"/>
<path class="st2" d="M375.8,385.7c-11.2-5.1-24.4-0.2-29.5,11s-0.1,24.4,11.1,29.5c8,3.6,20.8,11.7,28.8,22.5
	c11.7-9.6,21.9-20.7,30.6-32.9C400.9,397.9,381.1,388.1,375.8,385.7z"/>
<path class="st2" d="M156.8,335.7c-8.8-8.6-22.9-8.4-31.5,0.4c-4,4.1-15.1,10.2-29.2,10.9c3.6,15.3,9.3,29.6,16.6,42.7
	c17.5-3.5,33.7-11.4,44.5-22.5C165.8,358.4,165.6,344.3,156.8,335.7z"/>
<path class="st4" d="M93.4,391.6c-1.3,0-2.7,0-4-0.1c-19.6-0.8-48-8.1-72.5-37.8c-7.8-9.5-6.5-23.6,3.1-31.4
	c9.5-7.8,23.6-6.4,31.4,3.1C62.6,339.1,76,346.3,91.3,347c16.3,0.7,29.5-6.3,34-10.9c8.6-8.8,22.7-9,31.5-0.4
	c8.8,8.6,9,22.7,0.4,31.5C142.5,382.2,117.8,391.6,93.4,391.6z"/>
<path class="st6" d="M432,271.6L432,271.6L432,271.6z M434.3,316.3c-6.7,0-12.9-1-18.4-3.1c-11.5-4.4-17.2-17.3-12.8-28.8
	c4.4-11.4,17.2-17.1,28.6-12.9c4.9,1.2,22.3-2,34.8-13.6c10.9-10.1,14.7-23,11.6-39.5c-2.3-12.1,5.8-23.7,17.9-26
	c12.1-2.3,23.8,5.8,26,17.9c6.2,33.3-4.1,63-28.9,83.6C476.1,308.1,453.5,316.3,434.3,316.3z"/>
<path class="st4" d="M245.2,574c-9.8,0-18.8-6.6-21.5-16.5c-11.2-41.9-7.9-115.6,6.7-146.1c5.3-11.1,18.6-15.8,29.7-10.5
	c11.1,5.3,15.8,18.6,10.5,29.7c-9.3,19.5-13,81.3-3.9,115.4c3.2,11.9-3.9,24.1-15.8,27.3C249.1,573.8,247.1,574,245.2,574z"/>
<path class="st4" d="M402.2,529.4c-4.2,0-8.5-1.2-12.3-3.7c-10.3-6.8-13.1-20.6-6.3-30.9c8.5-12.9,11.3-24.2,8.3-34.4
	c-4.8-16.7-24-29.3-34.6-34.2c-11.2-5.1-16.2-18.3-11.1-29.5s18.3-16.1,29.5-11c7.9,3.6,47.8,23.5,59,62.4
	c4.6,15.9,5.9,41.2-14,71.3C416.5,525.9,409.4,529.4,402.2,529.4z"/>
<path class="st0" d="M445.2,266C434.5,207,389.1,136.9,334.1,98.7c-30.6-21.2-60.5-7.7-92.7-1.9c-32.3,5.8-63.4,3.5-84.7,34.2
	c-38,55-55.9,136.3-45.2,195.3c16.6,91.9,104.8,152.8,197,136.1C400.6,445.8,461.8,357.9,445.2,266z"/>
<path class="st7" d="M161.6,418.9c37.8,35.7,91.6,53.6,146.8,43.6c55.2-10,99.3-45.5,122.3-92.2L161.6,418.9z"/>
<path class="st8" d="M196.6,414.6c-35.9-24.6-62.3-63-70.7-109.1c-10-55.3,5.1-130.3,38.4-184.8c-43.3,54.7-64.3,142.9-52.9,205.6
	c6.9,38.2,26.2,71,53,95.2L196.6,414.6z"/>
<path class="st8" d="M322.9,441.6c-47.4,8.6-93.8-3.4-129.9-29.6v1h-37.4c38,39.6,94.6,60,152.8,49.5c50.7-9.2,92-39.9,116.2-80.9
	C399.9,412,364.5,434.1,322.9,441.6z"/>
<path class="st4" d="M445.2,266C434.5,207,389.1,136.9,334.1,98.7c-30.6-21.2-60.5-7.7-92.7-1.9c-32.3,5.8-63.4,3.5-84.7,34.2
	c-38,55-55.9,136.3-45.2,195.3c16.6,91.9,104.8,152.8,197,136.1C400.6,445.8,461.8,357.9,445.2,266z"/>
<ellipse class="st9" cx="274.3" cy="276.8" rx="49.5" ry="49.5"/>
<g>
	<path class="st10" d="M163.5,305c-3.9,0-7.4-2.8-8.1-6.8c-0.8-4.5,2.2-8.7,6.6-9.6l27.9-5c4.5-0.8,8.7,2.1,9.6,6.6
		c0.8,4.5-2.2,8.8-6.6,9.6l-27.9,5C164.5,305,164,305,163.5,305z"/>
	<path class="st10" d="M358.2,269.9c-3.9,0-7.4-2.8-8.1-6.8c-0.8-4.5,2.2-8.7,6.6-9.6l27.9-5c4.5-0.8,8.8,2.2,9.6,6.6
		c0.8,4.5-2.2,8.8-6.6,9.6l-27.9,5C359.2,269.8,358.7,269.9,358.2,269.9z"/>
</g>
<path class="st4" d="M161.6,418.9c37.8,35.7,91.6,53.6,146.8,43.6c55.2-10,99.3-45.5,122.3-92.2L161.6,418.9z"/>
<g>
	<path class="st10" d="M272.2,292.1c-14,0-26.4-10-28.9-24.2l-0.9-4.7c-0.8-4.5,2.2-8.7,6.6-9.5c4.5-0.8,8.8,2.2,9.6,6.6l0.8,4.7
		c1.3,7,8.1,11.7,15.1,10.5s11.7-8,10.5-15.1l-0.9-4.7c-0.8-4.5,2.2-8.7,6.6-9.6c4.5-0.8,8.8,2.2,9.6,6.6l0.9,4.7
		c2.9,16-7.8,31.3-23.7,34.2C275.7,291.9,274,292.1,272.2,292.1z"/>
	<path class="st10" d="M159.4,266.3c-3.9,0-7.4-2.8-8.1-6.8c-0.9-5.1,0.2-10.3,3.2-14.6c3-4.3,7.4-7.2,12.6-8.1
		c5.1-0.9,10.3,0.2,14.6,3.2c4.3,3,7.2,7.4,8.1,12.6c0.8,4.5-2.2,8.7-6.6,9.5s-8.8-2.2-9.6-6.6c-0.2-1.1-0.9-1.7-1.3-2
		c-0.4-0.3-1.2-0.7-2.3-0.5c-1.1,0.2-1.7,0.9-2,1.3c-0.3,0.4-0.7,1.2-0.5,2.3c0.8,4.5-2.2,8.8-6.6,9.5
		C160.3,266.2,159.8,266.3,159.4,266.3z"/>
	<path class="st10" d="M354,231.1c-3.9,0-7.4-2.8-8.1-6.8c-0.9-5.1,0.2-10.3,3.2-14.6c3-4.3,7.5-7.2,12.6-8.1
		c5.1-0.9,10.3,0.2,14.6,3.2c4.3,3,7.2,7.4,8.1,12.6c0.8,4.5-2.2,8.8-6.6,9.5c-4.5,0.8-8.8-2.1-9.6-6.6c-0.2-1.1-0.9-1.7-1.3-2
		c-0.4-0.3-1.2-0.7-2.3-0.5c-1.1,0.2-1.7,0.9-2,1.3c-0.3,0.4-0.7,1.2-0.5,2.3c0.8,4.5-2.2,8.7-6.6,9.6
		C355,231.1,354.5,231.1,354,231.1z"/>
</g>
<path class="st1" d="M371.6,16.1c-3-5.1-10.1-6.1-14.4-2c-22.5,21.6-51.2,35.8-82.1,40.7L173.8,71.1c-29.2,4.7-49.1,32-44.5,61.1
	c4.6,29.2,32.1,49,61.4,44.4l114.1-18.3c28-4.5,52.6-21.2,67-45.5C389.4,82.9,389.3,45.9,371.6,16.1z"/>
<path class="st10" d="M290.7,137.3l-20.3,3.3c-4.4,0.7-8.6-2.3-9.3-6.7c-0.7-4.4,2.3-8.6,6.7-9.3l20.3-3.3
	c18.7-3,35.9-12.5,48.3-26.8c2.9-3.3,8-3.7,11.4-0.8c3.4,2.9,3.8,8,0.8,11.4C333.8,122.3,313.2,133.7,290.7,137.3z"/>
<path class="st10" d="M296,91l-16.8,2.7c-4.4,0.7-8.6-2.3-9.3-6.7c-0.7-4.4,2.3-8.5,6.7-9.2l16.8-2.7c9.8-1.6,19.1-5.6,26.9-11.6
	l13-9.9c3.5-2.7,8.6-2,11.3,1.5c2.7,3.5,2.1,8.6-1.4,11.3l-13,9.9C320.3,83.9,308.4,89,296,91z"/>
<path class="st10" d="M217,111.2l-44.7,7.2c-4.4,0.7-8.6-2.3-9.3-6.7c-0.7-4.4,2.3-8.5,6.7-9.2l44.7-7.2c4.4-0.7,8.6,2.3,9.3,6.7
	C224.4,106.4,221.4,110.5,217,111.2z"/>
<path class="st10" d="M238.7,145.6l-23.6,3.8c-4.4,0.7-8.6-2.3-9.3-6.7c-0.7-4.4,2.3-8.5,6.7-9.3l23.6-3.8c4.4-0.7,8.6,2.3,9.3,6.7
	C246.1,140.7,243.1,144.9,238.7,145.6z"/>
<path class="st10" d="M43.8,154.8c-1.6,0.3-3.3,0.2-4.9-0.5L5.5,141c-4.5-1.8-6.7-6.9-4.9-11.3c1.8-4.5,6.9-6.6,11.4-4.8l33.4,13.3
	c4.5,1.8,6.7,6.9,4.9,11.3C49.1,152.3,46.6,154.2,43.8,154.8z"/>
<path class="st10" d="M152.6,91.3c-3,0.6-6.3-0.5-8.4-3L118,57c-3.1-3.7-2.6-9.2,1.1-12.3c3.7-3.1,9.2-2.6,12.4,1.1l26.2,31.2
	c3.1,3.7,2.6,9.2-1.1,12.3C155.3,90.4,154,91,152.6,91.3z"/>
<path class="st10" d="M443.8,79.3c-2.8,0.5-5.9-0.3-8-2.6c-3.3-3.5-3.2-9,0.3-12.3l26.1-24.5c3.5-3.3,9.1-3.2,12.4,0.3
	c3.3,3.5,3.2,9-0.3,12.3L448.2,77C446.9,78.2,445.4,78.9,443.8,79.3z"/>
<path class="st10" d="M319,59.8c-1.4,0.3-2.9,0.2-4.4-0.3c-4.6-1.5-7.1-6.4-5.6-11L321.7,10c1.5-4.6,6.5-7.1,11.1-5.6
	c4.6,1.5,7.1,6.4,5.6,11L325.7,54C324.7,57.1,322,59.3,319,59.8z"/>
<path class="st10" d="M230.1,46.3c-4.8,0.9-9.4-2.2-10.3-6.9l-4.6-23.9c-0.9-4.7,2.2-9.3,7-10.2c4.8-0.9,9.4,2.2,10.3,6.9l4.6,23.9
	C238,40.8,234.9,45.4,230.1,46.3z"/>
</svg>
