<?xml version="1.0" encoding="utf-8"?>
<!-- Generator: Adobe Illustrator 21.0.0, SVG Export Plug-In . SVG Version: 6.00 Build 0)  -->
<svg version="1.1" id="Layer_1" xmlns="http://www.w3.org/2000/svg" xmlns:xlink="http://www.w3.org/1999/xlink" x="0px" y="0px"
	 viewBox="0 0 505 553" style="enable-background:new 0 0 505 553;" xml:space="preserve">
<style type="text/css">
	.st0{fill:#E1E3EB;}
	.st1{fill:#B3B7C6;}
	.st2{opacity:0.2;fill:#121E48;}
	.st3{fill:none;stroke:#6E7690;stroke-width:15;stroke-linecap:round;stroke-linejoin:round;stroke-miterlimit:10;}
	.st4{fill:#E1E3EB;stroke:#6E7690;stroke-width:15;stroke-linecap:round;stroke-linejoin:round;stroke-miterlimit:10;}
	.st5{fill:#B3B7C6;stroke:#6E7690;stroke-width:15;stroke-linecap:round;stroke-linejoin:round;stroke-miterlimit:10;}
	
		.st6{fill-rule:evenodd;clip-rule:evenodd;fill:#F8F9FD;stroke:#6E7690;stroke-width:15;stroke-linecap:round;stroke-linejoin:round;stroke-miterlimit:10;}
	.st7{fill:#6E7690;}
</style>
<path class="st0" d="M303.2,542c-12.9,0-23.4-10.5-23.4-23.4v-88.5c0-12.9,10.5-23.4,23.4-23.4c12.9,0,23.4,10.5,23.4,23.4v88.5
	C326.6,531.5,316.1,542,303.2,542z"/>
<ellipse class="st0" cx="123.6" cy="144.5" rx="53.7" ry="53.7"/>
<ellipse class="st1" cx="123.6" cy="144.5" rx="25.1" ry="25.1"/>
<path class="st2" d="M155.3,101.2c-25.2,22.8-46.6,54.3-61.8,87.8c8.6,5.8,18.9,9.3,30.1,9.3c29.6,0,53.7-24.1,53.7-53.7
	C177.2,126.7,168.6,111,155.3,101.2z"/>
<path class="st0" d="M202.8,542c-12.9,0-23.4-10.5-23.4-23.4v-88.5c0-12.9,10.5-23.4,23.4-23.4c12.9,0,23.4,10.5,23.4,23.4v88.5
	C226.1,531.5,215.7,542,202.8,542z"/>
<path class="st2" d="M303.2,406.7c-12.9,0-23.4,10.5-23.4,23.4v49c16.5-2.6,32.2-7.6,46.7-14.7v-34.3
	C326.6,417.1,316.1,406.7,303.2,406.7z"/>
<path class="st2" d="M202.8,406.7c-12.9,0-23.4,10.5-23.4,23.4v34.3c14.5,7.1,30.2,12.1,46.7,14.7v-49
	C226.1,417.1,215.7,406.7,202.8,406.7z"/>
<path class="st0" d="M92.2,352.5c-16.7,0-32-4.4-45-12.9c-14.8-9.7-26-24.7-31.4-42.2c-10.6-34,0.1-82.3,48.7-107.7
	c11.4-6,25.6-1.6,31.5,9.9c6,11.4,1.6,25.6-9.9,31.6c-25,13.1-31,35.7-25.8,52.4c7.2,23,29.1,23,38.2,21.8
	c12.8-1.5,24.5,7.6,26,20.4c1.6,12.8-7.6,24.5-20.4,26C100.1,352.2,96.1,352.5,92.2,352.5z"/>
<path class="st2" d="M124.6,325.7c-1.6-12.8-13.2-21.9-26-20.4c-6.7,0.8-20.4,1.1-30-8.1c-0.1,2.3-0.2,4.6-0.2,6.9
	c0,16.2,2.3,31.9,6.6,46.7c5.5,1.1,11.3,1.7,17.2,1.7c4,0,8-0.2,12-0.7C117,350.2,126.1,338.5,124.6,325.7z"/>
<path class="st3" d="M92.2,352.5c-16.7,0-32-4.4-45-12.9c-14.8-9.7-26-24.7-31.4-42.2c-10.6-34,0.1-82.3,48.7-107.7
	c11.4-6,25.6-1.6,31.5,9.9c6,11.4,1.6,25.6-9.9,31.6c-25,13.1-31,35.7-25.8,52.4c7.2,23,29.1,23,38.2,21.8
	c12.8-1.5,24.5,7.6,26,20.4c1.6,12.8-7.6,24.5-20.4,26C100.1,352.2,96.1,352.5,92.2,352.5z"/>
<path class="st4" d="M413.8,352.5c-3.9,0-8-0.2-12-0.7c-12.8-1.6-21.9-13.2-20.4-26s13.2-22,26-20.4c9.1,1.1,31,1.2,38.2-21.8
	c5.2-16.6-0.8-39.3-25.8-52.4c-11.4-6-15.9-20.1-9.9-31.6c6-11.4,20.1-15.9,31.5-9.9c48.6,25.5,59.3,73.7,48.7,107.7
	c-5.4,17.5-16.6,32.5-31.4,42.2C445.9,348.1,430.5,352.5,413.8,352.5z"/>
<path class="st3" d="M303.2,542c-12.9,0-23.4-10.5-23.4-23.4v-88.5c0-12.9,10.5-23.4,23.4-23.4c12.9,0,23.4,10.5,23.4,23.4v88.5
	C326.6,531.5,316.1,542,303.2,542z"/>
<path class="st3" d="M202.8,542c-12.9,0-23.4-10.5-23.4-23.4v-88.5c0-12.9,10.5-23.4,23.4-23.4c12.9,0,23.4,10.5,23.4,23.4v88.5
	C226.1,531.5,215.7,542,202.8,542z"/>
<ellipse class="st4" cx="382.4" cy="144.5" rx="53.7" ry="53.7"/>
<ellipse class="st5" cx="382.5" cy="144.5" rx="25.1" ry="25.1"/>
<ellipse class="st3" cx="123.6" cy="144.5" rx="53.7" ry="53.7"/>
<ellipse class="st3" cx="123.6" cy="144.5" rx="25.1" ry="25.1"/>
<path class="st0" d="M421.6,291.8C421.6,198.9,344.2,65,253,65S84.4,198.9,84.4,291.8S159.9,460.1,253,460.1
	S421.6,384.7,421.6,291.8z"/>
<path class="st1" d="M117.1,391.4c30.7,41.7,80.2,68.7,135.9,68.7s105.3-27,135.9-68.7H117.1z"/>
<path class="st2" d="M270.9,442.2c-93.1,0-168.6-75.3-168.6-168.3c0-55.9,28.1-126.7,70.3-174.2c-52,46-88.2,128.6-88.2,192.1
	c0,92.9,75.5,168.3,168.6,168.3c51.2,0,97.1-22.8,128-58.7C351.5,426.8,313,442.2,270.9,442.2z"/>
<path class="st3" d="M421.6,291.8C421.6,198.9,344.2,65,253,65S84.4,198.9,84.4,291.8S159.9,460.1,253,460.1
	S421.6,384.7,421.6,291.8z"/>
<circle class="st6" cx="253" cy="264" r="49"/>
<g>
	<path class="st7" d="M168.7,300.4h-28.2c-4.3,0-7.7-3.4-7.7-7.7s3.4-7.7,7.7-7.7h28.2c4.3,0,7.7,3.4,7.7,7.7S173,300.4,168.7,300.4
		z"/>
	<path class="st7" d="M365.4,300.4h-28.1c-4.2,0-7.7-3.4-7.7-7.7s3.4-7.7,7.7-7.7h28.1c4.3,0,7.7,3.4,7.7,7.7
		S369.7,300.4,365.4,300.4z"/>
</g>
<path class="st3" d="M117.1,391.4c30.7,41.7,80.2,68.7,135.9,68.7s105.3-27,135.9-68.7H117.1z"/>
<g>
	<path class="st7" d="M154.6,260.7c-7.6,0-14.9-2.9-20.2-8c-5-4.8-7.7-11.2-7.7-17.9c0-4.3,3.4-7.7,7.7-7.7c4.3,0,7.7,3.4,7.7,7.7
		c0,2.5,1.1,4.9,3.1,6.8c2.5,2.4,6.1,3.8,9.9,3.6c6.6-0.2,12-5.1,12-10.9c0-5.8-5.6-10.5-12.5-10.5c-15.4,0-27.9-11.6-27.9-25.8
		s11.8-25.8,26.9-26.3c8-0.2,15.7,2.6,21.1,8c5,4.8,7.7,11.2,7.7,17.9c0,4.3-3.4,7.7-7.7,7.7c-4.2,0-7.7-3.4-7.7-7.7
		c0-2.5-1.1-4.9-3-6.8c-2.5-2.4-6.1-3.8-10-3.6c-6.6,0.2-12,5.1-12,10.9c0,5.8,5.6,10.5,12.5,10.5c15.4,0,27.9,11.6,27.9,25.8
		s-11.8,25.8-26.9,26.3L154.6,260.7z"/>
	<path class="st7" d="M154.6,275.8c-4.2,0-7.7-3.5-7.7-7.7v-98.6c0-4.3,3.4-7.7,7.7-7.7c4.3,0,7.7,3.4,7.7,7.7v98.6
		C162.3,272.3,158.9,275.8,154.6,275.8z"/>
	<path class="st7" d="M351.4,260.7c-7.6,0-14.9-2.9-20.2-8c-5-4.8-7.7-11.2-7.7-17.9c0-4.3,3.4-7.7,7.7-7.7c4.2,0,7.7,3.4,7.7,7.7
		c0,2.5,1.1,4.9,3,6.8c2.5,2.4,6.1,3.8,10,3.6c6.6-0.2,12-5.1,12-10.9c0-5.8-5.6-10.5-12.5-10.5c-15.4,0-27.9-11.6-27.9-25.8
		s11.8-25.8,26.9-26.3c7.9-0.2,15.6,2.6,21.1,8c5,4.8,7.7,11.2,7.7,17.9c0,4.3-3.4,7.7-7.7,7.7c-4.3,0-7.7-3.4-7.7-7.7
		c0-2.5-1.1-4.9-3.1-6.8c-2.5-2.4-6.1-3.8-9.9-3.6c-6.6,0.2-12,5.1-12,10.9c0,5.8,5.6,10.5,12.5,10.5c15.4,0,27.9,11.6,27.9,25.8
		s-11.8,25.8-26.9,26.3L351.4,260.7z"/>
	<path class="st7" d="M351.4,275.8c-4.3,0-7.7-3.5-7.7-7.7v-98.6c0-4.3,3.4-7.7,7.7-7.7c4.2,0,7.7,3.4,7.7,7.7v98.6
		C359,272.3,355.6,275.8,351.4,275.8z"/>
</g>
<path class="st5" d="M379.4,15.9c-2.2-5.6-9-7.7-13.9-4.3c-25.9,17.9-56.6,27.5-88.1,27.5H174.3c-29.7,0-53.8,24.1-53.8,53.8
	c0,29.7,24.1,53.8,53.8,53.8H290c28.5,0,55.4-12.6,73.6-34.5C386,85.4,392,48.5,379.4,15.9z"/>
<path class="st7" d="M279.5,123.7h-20.6c-4.5,0-8.1-3.6-8.1-8.1c0-4.5,3.6-8.1,8.1-8.1h20.6c19,0,37.6-6.7,52.2-18.9
	c3.5-2.9,8.6-2.4,11.4,1c2.9,3.4,2.4,8.6-1,11.4C324.5,115.6,302.3,123.7,279.5,123.7z"/>
<path class="st7" d="M292.2,78.5h-17.1c-4.5,0-8.1-3.6-8.1-8.1c0-4.5,3.6-8.1,8.1-8.1h17.1c9.9,0,19.8-2.5,28.5-7.2l14.5-7.8
	c3.9-2.1,8.9-0.7,11,3.3c2.1,3.9,0.7,8.9-3.3,11l-14.5,7.8C317.4,75.3,304.8,78.5,292.2,78.5z"/>
<path class="st7" d="M210.7,86.1h-45.4c-4.5,0-8.1-3.6-8.1-8.1c0-4.5,3.6-8.1,8.1-8.1h45.4c4.5,0,8.1,3.6,8.1,8.1
	C218.8,82.4,215.1,86.1,210.7,86.1z"/>
<path class="st7" d="M226.7,123.7h-24c-4.5,0-8.1-3.6-8.1-8.1c0-4.5,3.6-8.1,8.1-8.1h24c4.5,0,8.1,3.6,8.1,8.1
	C234.8,120,231.2,123.7,226.7,123.7z"/>
<path class="st7" d="M247.3,280.1c-13.6-2.5-23.8-14.5-23.9-28.8l0-4.7c0-4.5,3.6-8.1,8-8.2c4.4,0,8.1,3.6,8.1,8.1l0,4.7
	c0,7.1,5.8,12.9,12.9,12.9c7.1,0,12.9-5.9,12.8-13l0-4.8c0-4.5,3.6-8.2,8.1-8.3c4.6,0,8.3,3.6,8.4,8.2l0,4.8
	c0.2,16.3-13,29.6-29.2,29.6C250.7,280.6,248.9,280.4,247.3,280.1z"/>
</svg>
